<svg  xmlns="http://www.w3.org/2000/svg" viewBox="0 0 370 106.08915372096104">
<defs></defs>
<g transform="matrix(1.331256495197515,0,0,1.331256495197515,-16.49959307257477,-13.859711706671803)" fill="currentColor">
<g xmlns="http://www.w3.org/2000/svg"><g>
<polygon points="54.644,56.782 35.043,56.782 29.789,76.381 49.394,76.381"></polygon></g>
<g>
<polygon points="29.789,76.381 16.071,76.381 12.394,90.102 26.115,90.102"></polygon></g>
<g>
<polygon points="72.04,43.063 58.319,43.063 54.644,56.782 68.363,56.782"></polygon></g><g>
<polygon points="60.892,33.458 51.288,33.458 48.716,43.063 58.319,43.063"></polygon></g><g>
<polygon points="78.988,17.134 69.384,17.134 66.81,26.739 76.416,26.739"></polygon></g><g>
<polygon points="37.616,47.18 28.013,47.18 25.438,56.782 35.043,56.782   "></polygon></g><g><polygon points="87.511,10.411 80.79,10.411 78.988,17.134 85.71,17.134   "></polygon></g><g><polygon points="80.562,36.341 73.842,36.341 72.04,43.063 78.762,43.063   "></polygon></g><g><polygon points="53.089,26.735 46.37,26.735 44.565,33.458 51.288,33.458   "></polygon></g></g></g><g transform="matrix(2.3749717062506157,0,0,2.3749717062506157,122.94540943474325,-14.187060078855033)" fill="currentColor"><path d="M2.84 40.16 c-1.6 0 -2.12 -0.56 -2.16 -2.08 c-0.04 -1.4 0.6 -2.56 1.36 -3.64 c0.64 -0.92 0.64 -1.44 -0.6 -1.56 c-0.32 -0.04 -0.64 -0.24 -0.96 -0.32 c-0.24 -0.08 -0.52 -0.16 -0.76 -0.28 c-0.76 -0.32 -1.08 -0.96 -0.92 -1.76 c0.32 -1.68 1.2 -2.96 2.72 -3.68 c0.68 -0.36 1.48 -0.4 2.08 0.16 c0.48 0.48 0.76 1.08 0.44 1.8 c-0.32 0.8 -0.6 1.64 -1.28 2.2 c-0.8 0.64 -1.16 1.08 0.08 1.6 c0.76 0.32 0.72 1 0.28 1.68 c-0.56 0.84 -1.08 1.68 -1.48 2.6 c-0.32 0.72 -0.48 1.64 0.12 2.24 c0.6 0.64 1.48 0.4 2.24 0.08 c1.6 -0.64 2.88 -1.6 4.2 -2.76 c1.2 -1.04 2.76 -2.52 4.12 -3.76 c0.24 -0.16 0.44 -0.6 0.8 -0.24 c0.24 0.24 -0.04 0.48 -0.2 0.64 c-2.56 2.32 -4.8 4.84 -7.92 6.48 c-0.72 0.36 -1.44 0.68 -2.16 0.6 z M0.44 31.72 c1.2 0.12 3.32 -2.76 2.88 -3.8 c-0.28 -0.64 -0.76 -0.68 -1.32 -0.48 c-0.92 0.28 -2.4 2.24 -2.48 3.2 c-0.04 0.72 0.52 0.84 0.92 1.08 z M16.268 28.64 c-0.44 0.04 -0.72 -0.24 -0.8 -0.68 c-0.16 -1 0.76 -1.16 1.32 -1.44 c0.4 -0.2 0.68 0.2 0.8 0.64 c-0.24 0.64 -0.48 1.36 -1.32 1.48 z M14.388 39.68 c-1.48 0.44 -2.68 -0.56 -2.56 -2.16 c0.44 -1.68 1.24 -3.36 2.04 -5.04 c0.16 -0.32 0.44 -0.6 0.76 -0.36 c0.4 0.28 0.04 0.6 -0.08 0.88 c-0.52 1.2 -1.12 2.4 -1.56 3.64 c-0.24 0.72 -0.56 1.56 0.24 2.24 c0.52 0.4 1.4 0 2.04 -0.24 c2.52 -1.04 4.52 -3.96 7.44 -6.12 c0.2 -0.12 0.36 -0.44 0.6 -0.12 c0.2 0.24 -0.04 0.44 -0.24 0.56 c-3.88 2.8 -4.6 5.56 -8.68 6.72 z M25.416 40.12 c-2.36 0.64 -3.96 -0.6 -3.96 -3 c0 -2.92 3.16 -5.88 5.84 -5.56 c0.92 0.12 1.36 0.52 1.28 1.44 c-0.08 1.04 -0.76 1.48 -1.68 1.6 c-0.12 0.04 -0.24 -0.08 -0.36 -0.12 c0.04 -0.12 0.08 -0.24 0.16 -0.32 c0.24 -0.2 0.56 -0.32 0.84 -0.52 c0.36 -0.24 0.4 -0.64 0.24 -1.04 c-0.16 -0.36 -0.52 -0.32 -0.84 -0.36 c-2.08 -0.04 -4.96 3.08 -4.76 5.16 c0.12 1.6 1.44 2.48 3.16 2 c2.84 -0.76 5.04 -2.6 7.24 -4.36 c1.2 -0.96 2.04 -1.64 3.36 -2.48 c0.28 -0.16 0.56 -0.4 0.84 -0.08 c0.04 0.04 -0.24 0.44 -0.44 0.56 c-2.36 1.84 -4.4 3.36 -6.8 5.16 c-1.24 0.92 -2.64 1.52 -4.12 1.92 z M54.804 32.4 c0.36 0.24 0.12 0.48 -0.08 0.64 c-2.68 2.36 -4.8 4.88 -8 6.68 c-1.24 0.68 -2.76 1.64 -4.04 0.52 c-1.36 -1.24 -0.44 -2.84 0.12 -4.24 c0.36 -0.92 0.92 -1.8 1.24 -2.72 c0.24 -0.72 0.08 -1.16 -0.88 -0.8 c-2.24 0.88 -3.96 2.44 -5.6 4.08 c-0.4 0.44 -0.76 0.92 -1.16 1.4 c-0.24 0.28 -0.48 0.8 -0.88 0.52 c-0.32 -0.24 -0.16 -0.72 0 -1.12 c0.92 -2.2 1.76 -4.44 2.72 -6.64 c1.76 -4 3.6 -8 6.24 -11.52 c1 -1.32 2.12 -2.56 3.68 -3.24 c1.96 -0.84 3.48 0.12 3.44 2.28 c-0.08 2.24 -1.32 4.04 -2.68 5.64 c-2.24 2.68 -4.84 5 -7.96 6.6 c-2 1 -2.96 2.52 -3.4 4.52 c-0.04 0.16 -0.04 0.32 0.2 0.2 c1.28 -0.96 2.4 -2.08 3.84 -2.84 c0.64 -0.36 1.24 -0.76 2 -0.8 c1.28 -0.08 1.76 0.44 1.36 1.68 c-0.32 0.92 -0.84 1.8 -1.24 2.68 c-0.28 0.64 -0.56 1.24 -0.76 1.84 c-0.2 0.64 -0.36 1.36 0.16 1.88 c0.56 0.56 1.24 0.36 1.88 0.12 c2.52 -0.92 5.32 -3.48 9.16 -7.08 c0.16 -0.16 0.4 -0.44 0.64 -0.28 z M41.164 26.52 c-0.56 1.24 -1.44 2.32 -1.44 3.76 c4.28 -2 7.68 -5.04 10.16 -9.08 c0.44 -0.72 0.72 -1.56 0.96 -2.36 c0.2 -0.72 0.2 -1.48 -0.44 -2.04 c-0.72 -0.56 -1.52 -0.4 -2.24 0 c-0.96 0.6 -1.8 1.36 -2.52 2.24 c-1.8 2.32 -3.28 4.8 -4.48 7.48 z M71.392 32.44 c0.4 0.32 -0.04 0.6 -0.24 0.76 c-2.16 2.12 -4.04 4.04 -6.6 5.64 c-0.48 0.28 -0.92 0.56 -1.4 0.76 c-0.92 0.36 -1.84 0.4 -2.64 -0.24 c-0.84 -0.68 -0.8 -1.64 -0.6 -2.56 c0.16 -0.68 0.4 -1.36 0.6 -2 c-1.76 0.84 -2.8 2.64 -4.44 3.68 c-0.56 0.36 -1.08 0.76 -1.68 1.04 c-0.72 0.32 -1.4 0.48 -2.04 -0.08 c-0.6 -0.56 -0.64 -1.32 -0.48 -2.04 c0.6 -2.84 4 -5.64 6.96 -5.72 c0.56 0 1.16 0.2 1.68 0.52 c0.24 0.16 0.44 0.56 0.8 0.36 c0.44 -0.24 0.8 -1 1.28 -0.2 c0.36 0.52 -0.16 0.96 -0.36 1.44 c-0.48 1 -1.12 1.96 -1.36 3.08 c-0.16 0.72 -0.4 1.4 0.32 1.96 c0.72 0.52 1.36 0.28 2.04 -0.08 c1.44 -0.68 2.72 -1.64 3.88 -2.76 c1.2 -1.16 2.28 -2 3.48 -3.16 c0.2 -0.24 0.48 -0.64 0.8 -0.4 z M59.672000000000004 34.24 c0.32 -0.32 0.68 -0.68 0.48 -1.2 c-0.28 -0.68 -0.92 -0.36 -1.32 -0.44 c-2.44 0 -5.04 2 -5.96 4.52 c-0.2 0.64 -0.56 1.28 0.12 1.8 c0.6 0.52 1.16 0.04 1.6 -0.24 c1.96 -1.16 3.48 -2.84 5.08 -4.44 z M75.26 40.16 c-1.6 0 -2.12 -0.56 -2.16 -2.08 c-0.04 -1.4 0.6 -2.56 1.36 -3.64 c0.64 -0.92 0.64 -1.44 -0.6 -1.56 c-0.32 -0.04 -0.64 -0.24 -0.96 -0.32 c-0.24 -0.08 -0.52 -0.16 -0.76 -0.28 c-0.76 -0.32 -1.08 -0.96 -0.92 -1.76 c0.32 -1.68 1.2 -2.96 2.72 -3.68 c0.68 -0.36 1.48 -0.4 2.08 0.16 c0.48 0.48 0.76 1.08 0.44 1.8 c-0.32 0.8 -0.6 1.64 -1.28 2.2 c-0.8 0.64 -1.16 1.08 0.08 1.6 c0.76 0.32 0.72 1 0.28 1.68 c-0.56 0.84 -1.08 1.68 -1.48 2.6 c-0.32 0.72 -0.48 1.64 0.12 2.24 c0.6 0.64 1.48 0.4 2.24 0.08 c1.6 -0.64 2.88 -1.6 4.2 -2.76 c1.2 -1.04 2.76 -2.52 4.12 -3.76 c0.24 -0.16 0.44 -0.6 0.8 -0.24 c0.24 0.24 -0.04 0.48 -0.2 0.64 c-2.56 2.32 -4.8 4.84 -7.92 6.48 c-0.72 0.36 -1.44 0.68 -2.16 0.6 z M72.86 31.72 c1.2 0.12 3.32 -2.76 2.88 -3.8 c-0.28 -0.64 -0.76 -0.68 -1.32 -0.48 c-0.92 0.28 -2.4 2.24 -2.48 3.2 c-0.04 0.72 0.52 0.84 0.92 1.08 z M93.608 40.28 c-2 0.04 -2.56 -0.44 -2.68 -2.52 c-0.04 -0.4 0.2 -1.04 -0.24 -1.24 s-0.84 0.24 -1.2 0.52 c-1.4 1.04 -2.76 2.12 -4.44 2.6 c-1.44 0.44 -2.76 -0.68 -2.48 -2.12 c0.6 -2.92 3.96 -6.28 7.04 -5.96 c-0.04 0 0.2 0.04 0.36 -0.04 c0.88 -0.24 1.72 1 2.4 0.2 c0.56 -0.64 0.72 -1.56 1.08 -2.36 c1.84 -3.8 3.48 -7.72 6.28 -11.04 c0.4 -0.48 0.84 -1 1.36 -1.4 c1.36 -0.96 2.64 -0.4 2.88 1.28 c0.24 1.64 -0.32 3.12 -1.08 4.56 c-2.32 4.28 -5.76 7.6 -9.28 10.88 c-1.04 0.96 -1.64 1.96 -1.84 3.36 c-0.36 2.12 0.8 3.16 2.88 2.44 c1.52 -0.52 2.84 -1.48 3.96 -2.6 c1.52 -1.48 2.52 -2.6 4.04 -4.12 c0.16 -0.16 0.56 -0.44 0.6 -0.4 c0.44 0.36 -0.04 0.6 -0.2 0.8 c-1.88 2.32 -3.52 4.04 -5.96 5.8 c-1 0.76 -2.12 1.32 -3.48 1.36 z M95.688 30.72 c3.04 -3.04 6.04 -6.16 7.36 -10.44 c0.32 -0.96 0.64 -2.08 -0.36 -2.72 c-1.12 -0.72 -1.6 0.56 -2.16 1.16 c-2.56 2.88 -4.04 6.36 -5.68 9.76 c-1.92 4.08 -2.76 6.04 0.84 2.24 z M83.72800000000001 38.56 c0.68 0.76 1.64 0.28 2.36 -0.12 c1.68 -0.92 3.24 -2.08 4.68 -3.32 c0.68 -0.56 1.24 -1.2 0.88 -2.04 c-0.36 -0.8 -1.28 -0.84 -2.08 -0.84 c-2.04 0 -4.32 1.6 -5.6 3.92 c-0.4 0.76 -0.88 1.68 -0.24 2.4 z">
</path>
</g>
</svg>